<?xml version="1.0" encoding="UTF-8" standalone="no"?>
<svg
   xmlns:dc="http://purl.org/dc/elements/1.1/"
   xmlns:cc="http://creativecommons.org/ns#"
   xmlns:rdf="http://www.w3.org/1999/02/22-rdf-syntax-ns#"
   xmlns:svg="http://www.w3.org/2000/svg"
   xmlns="http://www.w3.org/2000/svg"
   xmlns:sodipodi="http://sodipodi.sourceforge.net/DTD/sodipodi-0.dtd"
   xmlns:inkscape="http://www.inkscape.org/namespaces/inkscape"
   sodipodi:docname="logo-google-plus.svg"
   inkscape:version="0.48.4 r9939"
   y="0px"
   xml:space="preserve"
   x="0px"
   width="47"
   viewBox="0 0 46.999999 46.999999"
   version="1.1"
   id="Layer_1"
   height="47"
   enable-background="new 0 0 56.693 56.693"><metadata
     id="metadata13"><rdf:RDF><cc:Work
         rdf:about=""><dc:format>image/svg+xml</dc:format><dc:type
           rdf:resource="http://purl.org/dc/dcmitype/StillImage" /><dc:title></dc:title></cc:Work></rdf:RDF></metadata><defs
     id="defs11" /><sodipodi:namedview
     pagecolor="#ffffff"
     bordercolor="#666666"
     borderopacity="1"
     objecttolerance="10"
     gridtolerance="10"
     guidetolerance="10"
     inkscape:pageopacity="0"
     inkscape:pageshadow="2"
     inkscape:window-width="898"
     inkscape:window-height="707"
     id="namedview9"
     showgrid="false"
     fit-margin-left="0"
     fit-margin-right="0"
     fit-margin-top="0"
     fit-margin-bottom="0"
     inkscape:zoom="4.1627714"
     inkscape:cx="25.9095"
     inkscape:cy="25.084505"
     inkscape:window-x="874"
     inkscape:window-y="151"
     inkscape:window-maximized="0"
     inkscape:current-layer="Layer_1" /><path
     style="fill:#000000;fill-opacity:1"
     d="M 0,0 0,36.3125 C 0,35.258726 0.25377361,34.18066 0.75000001,33.125 2.654717,29.066509 7.6602594,26.34375 13.21875,26.34375 l 0.15625,0 c -0.45283,-0.79434 -0.65625,-1.632075 -0.65625,-2.5 0,-0.431132 0.0421,-0.866274 0.15625,-1.3125 C 7.0438678,22.397288 2.6875,18.131132 2.6875,12.5 c 0,-3.9745285 3.1753537,-7.839269 7.71875,-9.4062501 1.360377,-0.4679245 2.760849,-0.71875 4.125,-0.71875 l 12.46875,0 c 0.425472,0 0.804481,0.2837264 0.9375,0.6875 0.132075,0.404717 -0.02877,0.8456368 -0.375,1.09375 l -2.78125,2.03125 c -0.165094,0.1207547 -0.355896,0.1875 -0.5625,0.1875 l -1,0 C 24.506486,7.9202829 25.25,10.117335 25.25,12.59375 c 0,2.731132 -1.394929,5.315212 -3.90625,7.28125 -1.942453,1.513208 -2,1.915212 -2,2.78125 0.02359,0.475472 1.384434,2.03809 2.875,3.09375 3.476415,2.459434 4.749057,4.845755 4.75,8.875 0,4.199057 -3.183491,7.846344 -8.125,9.28125 -1.584906,0.458491 -3.295637,0.6875 -5.09375,0.6875 -2.000943,0 -3.925354,-0.23467 -5.71875,-0.6875 C 4.5567217,43.028892 1.9784198,41.391509 0.78125001,39.25 0.26521221,38.323585 0,37.337028 0,36.3125 L 0,47 47,47 47,22.53125 C 47,23.072759 46.570873,23.5 46.03125,23.5 l -7.09375,0 0,7.09375 c 0,0.541509 -0.429127,0.96875 -0.96875,0.96875 l -2.03125,0 c -0.543396,0 -0.96875,-0.427241 -0.96875,-0.96875 l 0,-7.09375 -7.09375,0 c -0.539623,0 -1,-0.427241 -1,-0.96875 l 0,-2.03125 c 0,-0.541509 0.460377,-0.96875 1,-0.96875 l 7.09375,0 0,-7.09375 c 0,-0.540566 0.425354,-0.96875 0.96875,-0.96875 l 2.03125,0 c 0.539623,0 0.96875,0.428184 0.96875,0.96875 l 0,7.09375 7.09375,0 C 46.570873,19.53125 47,19.958491 47,20.5 L 47,0 0,0 z m 12.84375,6.1249999 c -0.975472,0 -1.868042,0.3987028 -2.53125,1.15625 C 9.286085,8.4520046 8.8542453,10.281486 9.125,12.34375 9.607075,16.032429 12.300943,19.229481 15,19.3125 l 0.0625,0 c 1.015094,0 1.866156,-0.396816 2.53125,-1.15625 1.039623,-1.184906 1.491392,-3.119575 1.21875,-5.1875 -0.484906,-3.6933959 -3.11934,-6.762618 -5.875,-6.8437501 l -0.09375,0 z M 14.4375,29.46875 c -4.24434,0 -7.96875,2.568868 -7.96875,5.5 0,3.189623 3.179245,5.6875 7.25,5.6875 5.370755,0 8.09375,-1.85 8.09375,-5.5 0,-0.346226 -0.04009,-0.704953 -0.125,-1.0625 -0.361321,-1.418868 -1.658962,-2.316627 -3.625,-3.65625 -0.269811,-0.183962 -0.552241,-0.361557 -0.84375,-0.5625 -0.849057,-0.260377 -1.763915,-0.394929 -2.6875,-0.40625 l -0.09375,0 z"
     id="rect3002"
     inkscape:connector-curvature="0" /><g
     id="g3"
     transform="matrix(0.94339621,0,0,0.94339621,-3.2424528,-4.8630954)" /></svg>