<?xml version="1.0" encoding="UTF-8" standalone="no"?>
<!-- Generator: Adobe Illustrator 17.0.0, SVG Export Plug-In . SVG Version: 6.00 Build 0)  -->

<svg
   xmlns:dc="http://purl.org/dc/elements/1.1/"
   xmlns:cc="http://creativecommons.org/ns#"
   xmlns:rdf="http://www.w3.org/1999/02/22-rdf-syntax-ns#"
   xmlns:svg="http://www.w3.org/2000/svg"
   xmlns="http://www.w3.org/2000/svg"
   xmlns:sodipodi="http://sodipodi.sourceforge.net/DTD/sodipodi-0.dtd"
   xmlns:inkscape="http://www.inkscape.org/namespaces/inkscape"
   version="1.1"
   id="Layer_1"
   x="0px"
   y="0px"
   width="512px"
   height="512px"
   viewBox="0 0 512 512"
   enable-background="new 0 0 512 512"
   xml:space="preserve"
   inkscape:version="0.48.4 r9939"
   sodipodi:docname="logo-twitter.svg"><metadata
   id="metadata9"><rdf:RDF><cc:Work
       rdf:about=""><dc:format>image/svg+xml</dc:format><dc:type
         rdf:resource="http://purl.org/dc/dcmitype/StillImage" /></cc:Work></rdf:RDF></metadata><defs
   id="defs7" /><sodipodi:namedview
   pagecolor="#ffffff"
   bordercolor="#666666"
   borderopacity="1"
   objecttolerance="10"
   gridtolerance="10"
   guidetolerance="10"
   inkscape:pageopacity="0"
   inkscape:pageshadow="2"
   inkscape:window-width="640"
   inkscape:window-height="480"
   id="namedview5"
   showgrid="false"
   inkscape:zoom="0.4609375"
   inkscape:cx="256"
   inkscape:cy="256"
   inkscape:window-x="392"
   inkscape:window-y="125"
   inkscape:window-maximized="0"
   inkscape:current-layer="Layer_1" />
<path
   fill="#FFFFFF"
   d="M0,0v512h512V0H0z M454.815,154.029c0.198,4.402,0.298,8.825,0.298,13.272  c0,135.557-103.183,291.867-291.865,291.867c-57.93,0-111.85-16.985-157.247-46.092c8.025,0.95,16.19,1.435,24.47,1.435  c48.062,0,92.292-16.398,127.4-43.912c-44.89-0.825-82.773-30.485-95.828-71.237c6.265,1.195,12.69,1.84,19.3,1.84  c9.355,0,18.417-1.253,27.025-3.597C61.44,288.179,26.08,246.719,26.08,197.019c0-0.432,0-0.862,0.01-1.29  c13.83,7.682,29.647,12.297,46.462,12.83c-27.525-18.395-45.635-49.793-45.635-85.383c0-18.8,5.06-36.42,13.89-51.57  c50.595,62.062,126.18,102.902,211.435,107.18c-1.747-7.508-2.655-15.338-2.655-23.378c0-56.65,45.932-102.578,102.582-102.578  c29.505,0,56.165,12.455,74.875,32.393c23.368-4.6,45.32-13.135,65.143-24.893c-7.657,23.955-23.925,44.057-45.102,56.753  c20.747-2.48,40.52-7.992,58.915-16.152c0,0,0,0,0,0l0,0c0,0,0,0,0,0C492.247,121.501,474.857,139.569,454.815,154.029z"
   id="path3"
   style="fill:#000000" />
</svg>